<svg width="34" height="32" viewBox="0 0 34 32" fill="none" xmlns="http://www.w3.org/2000/svg">
<path fill-rule="evenodd" clip-rule="evenodd" d="M33.0807 16.0807C33.0807 23.264 28.3708 29.3473 21.8706 31.4106C20.4689 31.8556 19.1622 30.7096 19.1622 29.2389V20.0884C19.1622 19.2653 19.5789 18.4981 20.2694 18.05L29.5193 12.0475C30.8201 11.2033 32.578 11.7837 32.8432 13.3116C32.9993 14.2112 33.0807 15.1365 33.0807 16.0807ZM27.8268 7.99054C28.9977 7.2307 29.2989 5.62733 28.3064 4.64587C25.4016 1.7735 21.4079 0 17 0C12.0514 0 7.62487 2.23529 4.67503 5.75128C3.77426 6.82494 4.23151 8.39921 5.47754 9.04073L15.7843 14.3472C16.5592 14.7461 17.4883 14.6996 18.2194 14.2251L27.8268 7.99054ZM0.91925 16.0807C0.91925 23.2641 5.62924 29.3473 12.1294 31.4107C13.5311 31.8556 14.8378 30.7096 14.8378 29.2389V20.2059C14.8378 19.2958 14.3292 18.462 13.5201 18.0454L4.15102 13.2217C2.77676 12.5142 1.09078 13.2599 0.969442 14.8008C0.936191 15.2231 0.91925 15.6499 0.91925 16.0807Z" fill="#32D583"/>
</svg>
