<svg width="787" height="1024" viewBox="0 0 787 1024" fill="none" xmlns="http://www.w3.org/2000/svg">
<rect width="787" height="1024" fill="#F5F5F4"/>
<g style="mix-blend-mode:multiply">
<mask id="mask0_935_41733" style="mask-type:alpha" maskUnits="userSpaceOnUse" x="0" y="3" width="787" height="1021">
<rect y="3" width="787" height="1021" fill="url(#paint0_radial_935_41733)"/>
</mask>
<g mask="url(#mask0_935_41733)">
<mask id="path-3-inside-1_935_41733" fill="white">
<path d="M-107.5 12.5H3.72222V123.722H-107.5V12.5Z"/>
</mask>
<path d="M-107.5 12.5H3.72222V123.722H-107.5V12.5Z" fill="white"/>
<path d="M3.72222 123.722V124.417H4.41736V123.722H3.72222ZM3.02708 12.5V123.722H4.41736V12.5H3.02708ZM3.72222 123.027H-107.5V124.417H3.72222V123.027Z" fill="#2F2B43" fill-opacity="0.2" mask="url(#path-3-inside-1_935_41733)"/>
<mask id="path-5-inside-2_935_41733" fill="white">
<path d="M3.72217 12.5H114.944V123.722H3.72217V12.5Z"/>
</mask>
<path d="M3.72217 12.5H114.944V123.722H3.72217V12.5Z" fill="white"/>
<path d="M114.944 123.722V124.417H115.64V123.722H114.944ZM114.249 12.5V123.722H115.64V12.5H114.249ZM114.944 123.027H3.72217V124.417H114.944V123.027Z" fill="#2F2B43" fill-opacity="0.2" mask="url(#path-5-inside-2_935_41733)"/>
<mask id="path-7-inside-3_935_41733" fill="white">
<path d="M114.944 12.5H226.167V123.722H114.944V12.5Z"/>
</mask>
<path d="M114.944 12.5H226.167V123.722H114.944V12.5Z" fill="white"/>
<path d="M226.167 123.722V124.417H226.862V123.722H226.167ZM225.471 12.5V123.722H226.862V12.5H225.471ZM226.167 123.027H114.944V124.417H226.167V123.027Z" fill="#2F2B43" fill-opacity="0.2" mask="url(#path-7-inside-3_935_41733)"/>
<mask id="path-9-inside-4_935_41733" fill="white">
<path d="M226.167 12.5H337.389V123.722H226.167V12.5Z"/>
</mask>
<path d="M226.167 12.5H337.389V123.722H226.167V12.5Z" fill="white"/>
<path d="M337.389 123.722V124.417H338.084V123.722H337.389ZM336.694 12.5V123.722H338.084V12.5H336.694ZM337.389 123.027H226.167V124.417H337.389V123.027Z" fill="#2F2B43" fill-opacity="0.2" mask="url(#path-9-inside-4_935_41733)"/>
<mask id="path-11-inside-5_935_41733" fill="white">
<path d="M337.389 12.5H448.611V123.722H337.389V12.5Z"/>
</mask>
<path d="M337.389 12.5H448.611V123.722H337.389V12.5Z" fill="white"/>
<path d="M448.611 123.722V124.417H449.306V123.722H448.611ZM447.916 12.5V123.722H449.306V12.5H447.916ZM448.611 123.027H337.389V124.417H448.611V123.027Z" fill="#2F2B43" fill-opacity="0.2" mask="url(#path-11-inside-5_935_41733)"/>
<mask id="path-13-inside-6_935_41733" fill="white">
<path d="M448.611 12.5H559.833V123.722H448.611V12.5Z"/>
</mask>
<path d="M448.611 12.5H559.833V123.722H448.611V12.5Z" fill="#F6F6F8"/>
<path d="M559.833 123.722V124.417H560.528V123.722H559.833ZM559.138 12.5V123.722H560.528V12.5H559.138ZM559.833 123.027H448.611V124.417H559.833V123.027Z" fill="#2F2B43" fill-opacity="0.2" mask="url(#path-13-inside-6_935_41733)"/>
<mask id="path-15-inside-7_935_41733" fill="white">
<path d="M559.833 12.5H671.055V123.722H559.833V12.5Z"/>
</mask>
<path d="M559.833 12.5H671.055V123.722H559.833V12.5Z" fill="white"/>
<path d="M671.055 123.722V124.417H671.75V123.722H671.055ZM670.36 12.5V123.722H671.75V12.5H670.36ZM671.055 123.027H559.833V124.417H671.055V123.027Z" fill="#2F2B43" fill-opacity="0.2" mask="url(#path-15-inside-7_935_41733)"/>
<mask id="path-17-inside-8_935_41733" fill="white">
<path d="M671.056 12.5H782.278V123.722H671.056V12.5Z"/>
</mask>
<path d="M671.056 12.5H782.278V123.722H671.056V12.5Z" fill="white"/>
<path d="M782.278 123.722V124.417H782.973V123.722H782.278ZM781.583 12.5V123.722H782.973V12.5H781.583ZM782.278 123.027H671.056V124.417H782.278V123.027Z" fill="#2F2B43" fill-opacity="0.2" mask="url(#path-17-inside-8_935_41733)"/>
<mask id="path-19-inside-9_935_41733" fill="white">
<path d="M782.278 12.5H893.5V123.722H782.278V12.5Z"/>
</mask>
<path d="M782.278 12.5H893.5V123.722H782.278V12.5Z" fill="white"/>
<path d="M893.5 123.027H782.278V124.417H893.5V123.027Z" fill="#2F2B43" fill-opacity="0.2" mask="url(#path-19-inside-9_935_41733)"/>
<mask id="path-21-inside-10_935_41733" fill="white">
<path d="M-107.5 123.722H3.72222V234.944H-107.5V123.722Z"/>
</mask>
<path d="M-107.5 123.722H3.72222V234.944H-107.5V123.722Z" fill="white"/>
<path d="M3.72222 234.944V235.639H4.41736V234.944H3.72222ZM3.02708 123.722V234.944H4.41736V123.722H3.02708ZM3.72222 234.249H-107.5V235.639H3.72222V234.249Z" fill="#2F2B43" fill-opacity="0.2" mask="url(#path-21-inside-10_935_41733)"/>
<mask id="path-23-inside-11_935_41733" fill="white">
<path d="M3.72217 123.722H114.944V234.944H3.72217V123.722Z"/>
</mask>
<path d="M3.72217 123.722H114.944V234.944H3.72217V123.722Z" fill="white"/>
<path d="M114.944 234.944V235.639H115.64V234.944H114.944ZM114.249 123.722V234.944H115.64V123.722H114.249ZM114.944 234.249H3.72217V235.639H114.944V234.249Z" fill="#2F2B43" fill-opacity="0.2" mask="url(#path-23-inside-11_935_41733)"/>
<mask id="path-25-inside-12_935_41733" fill="white">
<path d="M114.944 123.722H226.167V234.944H114.944V123.722Z"/>
</mask>
<path d="M114.944 123.722H226.167V234.944H114.944V123.722Z" fill="white"/>
<path d="M226.167 234.944V235.639H226.862V234.944H226.167ZM225.471 123.722V234.944H226.862V123.722H225.471ZM226.167 234.249H114.944V235.639H226.167V234.249Z" fill="#2F2B43" fill-opacity="0.2" mask="url(#path-25-inside-12_935_41733)"/>
<mask id="path-27-inside-13_935_41733" fill="white">
<path d="M226.167 123.722H337.389V234.944H226.167V123.722Z"/>
</mask>
<path d="M226.167 123.722H337.389V234.944H226.167V123.722Z" fill="white"/>
<path d="M337.389 234.944V235.639H338.084V234.944H337.389ZM336.694 123.722V234.944H338.084V123.722H336.694ZM337.389 234.249H226.167V235.639H337.389V234.249Z" fill="#2F2B43" fill-opacity="0.2" mask="url(#path-27-inside-13_935_41733)"/>
<mask id="path-29-inside-14_935_41733" fill="white">
<path d="M337.389 123.722H448.611V234.944H337.389V123.722Z"/>
</mask>
<path d="M337.389 123.722H448.611V234.944H337.389V123.722Z" fill="white"/>
<path d="M448.611 234.944V235.639H449.306V234.944H448.611ZM447.916 123.722V234.944H449.306V123.722H447.916ZM448.611 234.249H337.389V235.639H448.611V234.249Z" fill="#2F2B43" fill-opacity="0.2" mask="url(#path-29-inside-14_935_41733)"/>
<mask id="path-31-inside-15_935_41733" fill="white">
<path d="M448.611 123.722H559.834V234.944H448.611V123.722Z"/>
</mask>
<path d="M448.611 123.722H559.834V234.944H448.611V123.722Z" fill="white"/>
<path d="M559.834 234.944V235.639H560.529V234.944H559.834ZM559.138 123.722V234.944H560.529V123.722H559.138ZM559.834 234.249H448.611V235.639H559.834V234.249Z" fill="#2F2B43" fill-opacity="0.2" mask="url(#path-31-inside-15_935_41733)"/>
<mask id="path-33-inside-16_935_41733" fill="white">
<path d="M559.833 123.722H671.056V234.944H559.833V123.722Z"/>
</mask>
<path d="M559.833 123.722H671.056V234.944H559.833V123.722Z" fill="white"/>
<path d="M671.056 234.944V235.639H671.751V234.944H671.056ZM670.361 123.722V234.944H671.751V123.722H670.361ZM671.056 234.249H559.833V235.639H671.056V234.249Z" fill="#2F2B43" fill-opacity="0.2" mask="url(#path-33-inside-16_935_41733)"/>
<mask id="path-35-inside-17_935_41733" fill="white">
<path d="M671.056 123.722H782.278V234.944H671.056V123.722Z"/>
</mask>
<path d="M671.056 123.722H782.278V234.944H671.056V123.722Z" fill="white"/>
<path d="M782.278 234.944V235.639H782.973V234.944H782.278ZM781.583 123.722V234.944H782.973V123.722H781.583ZM782.278 234.249H671.056V235.639H782.278V234.249Z" fill="#2F2B43" fill-opacity="0.2" mask="url(#path-35-inside-17_935_41733)"/>
<mask id="path-37-inside-18_935_41733" fill="white">
<path d="M782.278 123.722H893.5V234.944H782.278V123.722Z"/>
</mask>
<path d="M782.278 123.722H893.5V234.944H782.278V123.722Z" fill="white"/>
<path d="M893.5 234.249H782.278V235.639H893.5V234.249Z" fill="#2F2B43" fill-opacity="0.2" mask="url(#path-37-inside-18_935_41733)"/>
<mask id="path-39-inside-19_935_41733" fill="white">
<path d="M-107.5 234.944H3.72222V346.167H-107.5V234.944Z"/>
</mask>
<path d="M-107.5 234.944H3.72222V346.167H-107.5V234.944Z" fill="white"/>
<path d="M3.72222 346.167V346.862H4.41736V346.167H3.72222ZM3.02708 234.944V346.167H4.41736V234.944H3.02708ZM3.72222 345.471H-107.5V346.862H3.72222V345.471Z" fill="#2F2B43" fill-opacity="0.2" mask="url(#path-39-inside-19_935_41733)"/>
<mask id="path-41-inside-20_935_41733" fill="white">
<path d="M3.72217 234.944H114.944V346.167H3.72217V234.944Z"/>
</mask>
<path d="M3.72217 234.944H114.944V346.167H3.72217V234.944Z" fill="white"/>
<path d="M114.944 346.167V346.862H115.64V346.167H114.944ZM114.249 234.944V346.167H115.64V234.944H114.249ZM114.944 345.471H3.72217V346.862H114.944V345.471Z" fill="#2F2B43" fill-opacity="0.2" mask="url(#path-41-inside-20_935_41733)"/>
<mask id="path-43-inside-21_935_41733" fill="white">
<path d="M114.944 234.944H226.167V346.167H114.944V234.944Z"/>
</mask>
<path d="M114.944 234.944H226.167V346.167H114.944V234.944Z" fill="#F6F6F8"/>
<path d="M226.167 346.167V346.862H226.862V346.167H226.167ZM225.471 234.944V346.167H226.862V234.944H225.471ZM226.167 345.471H114.944V346.862H226.167V345.471Z" fill="#2F2B43" fill-opacity="0.2" mask="url(#path-43-inside-21_935_41733)"/>
<mask id="path-45-inside-22_935_41733" fill="white">
<path d="M226.167 234.944H337.389V346.167H226.167V234.944Z"/>
</mask>
<path d="M226.167 234.944H337.389V346.167H226.167V234.944Z" fill="white"/>
<path d="M337.389 346.167V346.862H338.084V346.167H337.389ZM336.694 234.944V346.167H338.084V234.944H336.694ZM337.389 345.471H226.167V346.862H337.389V345.471Z" fill="#2F2B43" fill-opacity="0.2" mask="url(#path-45-inside-22_935_41733)"/>
<mask id="path-47-inside-23_935_41733" fill="white">
<path d="M337.389 234.944H448.611V346.167H337.389V234.944Z"/>
</mask>
<path d="M337.389 234.944H448.611V346.167H337.389V234.944Z" fill="white"/>
<path d="M448.611 346.167V346.862H449.306V346.167H448.611ZM447.916 234.944V346.167H449.306V234.944H447.916ZM448.611 345.471H337.389V346.862H448.611V345.471Z" fill="#2F2B43" fill-opacity="0.2" mask="url(#path-47-inside-23_935_41733)"/>
<mask id="path-49-inside-24_935_41733" fill="white">
<path d="M448.611 234.944H559.833V346.167H448.611V234.944Z"/>
</mask>
<path d="M448.611 234.944H559.833V346.167H448.611V234.944Z" fill="white"/>
<path d="M559.833 346.167V346.862H560.528V346.167H559.833ZM559.138 234.944V346.167H560.528V234.944H559.138ZM559.833 345.471H448.611V346.862H559.833V345.471Z" fill="#2F2B43" fill-opacity="0.2" mask="url(#path-49-inside-24_935_41733)"/>
<mask id="path-51-inside-25_935_41733" fill="white">
<path d="M559.833 234.944H671.055V346.167H559.833V234.944Z"/>
</mask>
<path d="M559.833 234.944H671.055V346.167H559.833V234.944Z" fill="white"/>
<path d="M671.055 346.167V346.862H671.75V346.167H671.055ZM670.36 234.944V346.167H671.75V234.944H670.36ZM671.055 345.471H559.833V346.862H671.055V345.471Z" fill="#2F2B43" fill-opacity="0.2" mask="url(#path-51-inside-25_935_41733)"/>
<mask id="path-53-inside-26_935_41733" fill="white">
<path d="M671.056 234.944H782.278V346.167H671.056V234.944Z"/>
</mask>
<path d="M671.056 234.944H782.278V346.167H671.056V234.944Z" fill="white"/>
<path d="M782.278 346.167V346.862H782.973V346.167H782.278ZM781.583 234.944V346.167H782.973V234.944H781.583ZM782.278 345.471H671.056V346.862H782.278V345.471Z" fill="#2F2B43" fill-opacity="0.2" mask="url(#path-53-inside-26_935_41733)"/>
<mask id="path-55-inside-27_935_41733" fill="white">
<path d="M782.278 234.944H893.5V346.167H782.278V234.944Z"/>
</mask>
<path d="M782.278 234.944H893.5V346.167H782.278V234.944Z" fill="white"/>
<path d="M893.5 345.471H782.278V346.862H893.5V345.471Z" fill="#2F2B43" fill-opacity="0.2" mask="url(#path-55-inside-27_935_41733)"/>
<mask id="path-57-inside-28_935_41733" fill="white">
<path d="M-107.5 346.166H3.72222V457.388H-107.5V346.166Z"/>
</mask>
<path d="M-107.5 346.166H3.72222V457.388H-107.5V346.166Z" fill="white"/>
<path d="M3.72222 457.388V458.083H4.41736V457.388H3.72222ZM3.02708 346.166V457.388H4.41736V346.166H3.02708ZM3.72222 456.693H-107.5V458.083H3.72222V456.693Z" fill="#2F2B43" fill-opacity="0.2" mask="url(#path-57-inside-28_935_41733)"/>
<mask id="path-59-inside-29_935_41733" fill="white">
<path d="M3.72217 346.166H114.944V457.388H3.72217V346.166Z"/>
</mask>
<path d="M3.72217 346.166H114.944V457.388H3.72217V346.166Z" fill="white"/>
<path d="M114.944 457.388V458.083H115.64V457.388H114.944ZM114.249 346.166V457.388H115.64V346.166H114.249ZM114.944 456.693H3.72217V458.083H114.944V456.693Z" fill="#2F2B43" fill-opacity="0.2" mask="url(#path-59-inside-29_935_41733)"/>
<mask id="path-61-inside-30_935_41733" fill="white">
<path d="M114.944 346.166H226.167V457.388H114.944V346.166Z"/>
</mask>
<path d="M114.944 346.166H226.167V457.388H114.944V346.166Z" fill="white"/>
<path d="M226.167 457.388V458.083H226.862V457.388H226.167ZM225.471 346.166V457.388H226.862V346.166H225.471ZM226.167 456.693H114.944V458.083H226.167V456.693Z" fill="#2F2B43" fill-opacity="0.2" mask="url(#path-61-inside-30_935_41733)"/>
<mask id="path-63-inside-31_935_41733" fill="white">
<path d="M226.167 346.166H337.389V457.388H226.167V346.166Z"/>
</mask>
<path d="M226.167 346.166H337.389V457.388H226.167V346.166Z" fill="white"/>
<path d="M337.389 457.388V458.083H338.084V457.388H337.389ZM336.694 346.166V457.388H338.084V346.166H336.694ZM337.389 456.693H226.167V458.083H337.389V456.693Z" fill="#2F2B43" fill-opacity="0.2" mask="url(#path-63-inside-31_935_41733)"/>
<mask id="path-65-inside-32_935_41733" fill="white">
<path d="M337.389 346.166H448.611V457.388H337.389V346.166Z"/>
</mask>
<path d="M337.389 346.166H448.611V457.388H337.389V346.166Z" fill="white"/>
<path d="M448.611 457.388V458.083H449.306V457.388H448.611ZM447.916 346.166V457.388H449.306V346.166H447.916ZM448.611 456.693H337.389V458.083H448.611V456.693Z" fill="#2F2B43" fill-opacity="0.2" mask="url(#path-65-inside-32_935_41733)"/>
<mask id="path-67-inside-33_935_41733" fill="white">
<path d="M448.611 346.166H559.834V457.388H448.611V346.166Z"/>
</mask>
<path d="M448.611 346.166H559.834V457.388H448.611V346.166Z" fill="white"/>
<path d="M559.834 457.388V458.083H560.529V457.388H559.834ZM559.138 346.166V457.388H560.529V346.166H559.138ZM559.834 456.693H448.611V458.083H559.834V456.693Z" fill="#2F2B43" fill-opacity="0.2" mask="url(#path-67-inside-33_935_41733)"/>
<mask id="path-69-inside-34_935_41733" fill="white">
<path d="M559.833 346.166H671.056V457.388H559.833V346.166Z"/>
</mask>
<path d="M559.833 346.166H671.056V457.388H559.833V346.166Z" fill="white"/>
<path d="M671.056 457.388V458.083H671.751V457.388H671.056ZM670.361 346.166V457.388H671.751V346.166H670.361ZM671.056 456.693H559.833V458.083H671.056V456.693Z" fill="#2F2B43" fill-opacity="0.2" mask="url(#path-69-inside-34_935_41733)"/>
<mask id="path-71-inside-35_935_41733" fill="white">
<path d="M671.056 346.166H782.278V457.388H671.056V346.166Z"/>
</mask>
<path d="M671.056 346.166H782.278V457.388H671.056V346.166Z" fill="#F6F6F8"/>
<path d="M782.278 457.388V458.083H782.973V457.388H782.278ZM781.583 346.166V457.388H782.973V346.166H781.583ZM782.278 456.693H671.056V458.083H782.278V456.693Z" fill="#2F2B43" fill-opacity="0.2" mask="url(#path-71-inside-35_935_41733)"/>
<mask id="path-73-inside-36_935_41733" fill="white">
<path d="M782.278 346.166H893.5V457.388H782.278V346.166Z"/>
</mask>
<path d="M782.278 346.166H893.5V457.388H782.278V346.166Z" fill="white"/>
<path d="M893.5 456.693H782.278V458.083H893.5V456.693Z" fill="#2F2B43" fill-opacity="0.2" mask="url(#path-73-inside-36_935_41733)"/>
<mask id="path-75-inside-37_935_41733" fill="white">
<path d="M-107.5 457.389H3.72222V568.611H-107.5V457.389Z"/>
</mask>
<path d="M-107.5 457.389H3.72222V568.611H-107.5V457.389Z" fill="white"/>
<path d="M3.72222 568.611V569.306H4.41736V568.611H3.72222ZM3.02708 457.389V568.611H4.41736V457.389H3.02708ZM3.72222 567.916H-107.5V569.306H3.72222V567.916Z" fill="#2F2B43" fill-opacity="0.2" mask="url(#path-75-inside-37_935_41733)"/>
<mask id="path-77-inside-38_935_41733" fill="white">
<path d="M3.72217 457.389H114.944V568.611H3.72217V457.389Z"/>
</mask>
<path d="M3.72217 457.389H114.944V568.611H3.72217V457.389Z" fill="white"/>
<path d="M114.944 568.611V569.306H115.64V568.611H114.944ZM114.249 457.389V568.611H115.64V457.389H114.249ZM114.944 567.916H3.72217V569.306H114.944V567.916Z" fill="#2F2B43" fill-opacity="0.2" mask="url(#path-77-inside-38_935_41733)"/>
<mask id="path-79-inside-39_935_41733" fill="white">
<path d="M114.944 457.389H226.167V568.611H114.944V457.389Z"/>
</mask>
<path d="M114.944 457.389H226.167V568.611H114.944V457.389Z" fill="white"/>
<path d="M226.167 568.611V569.306H226.862V568.611H226.167ZM225.471 457.389V568.611H226.862V457.389H225.471ZM226.167 567.916H114.944V569.306H226.167V567.916Z" fill="#2F2B43" fill-opacity="0.2" mask="url(#path-79-inside-39_935_41733)"/>
<mask id="path-81-inside-40_935_41733" fill="white">
<path d="M226.167 457.389H337.389V568.611H226.167V457.389Z"/>
</mask>
<path d="M226.167 457.389H337.389V568.611H226.167V457.389Z" fill="white"/>
<path d="M337.389 568.611V569.306H338.084V568.611H337.389ZM336.694 457.389V568.611H338.084V457.389H336.694ZM337.389 567.916H226.167V569.306H337.389V567.916Z" fill="#2F2B43" fill-opacity="0.2" mask="url(#path-81-inside-40_935_41733)"/>
<mask id="path-83-inside-41_935_41733" fill="white">
<path d="M337.389 457.389H448.611V568.611H337.389V457.389Z"/>
</mask>
<path d="M337.389 457.389H448.611V568.611H337.389V457.389Z" fill="white"/>
<path d="M448.611 568.611V569.306H449.306V568.611H448.611ZM447.916 457.389V568.611H449.306V457.389H447.916ZM448.611 567.916H337.389V569.306H448.611V567.916Z" fill="#2F2B43" fill-opacity="0.2" mask="url(#path-83-inside-41_935_41733)"/>
<mask id="path-85-inside-42_935_41733" fill="white">
<path d="M448.611 457.389H559.833V568.611H448.611V457.389Z"/>
</mask>
<path d="M448.611 457.389H559.833V568.611H448.611V457.389Z" fill="white"/>
<path d="M559.833 568.611V569.306H560.528V568.611H559.833ZM559.138 457.389V568.611H560.528V457.389H559.138ZM559.833 567.916H448.611V569.306H559.833V567.916Z" fill="#2F2B43" fill-opacity="0.2" mask="url(#path-85-inside-42_935_41733)"/>
<mask id="path-87-inside-43_935_41733" fill="white">
<path d="M559.833 457.389H671.055V568.611H559.833V457.389Z"/>
</mask>
<path d="M559.833 457.389H671.055V568.611H559.833V457.389Z" fill="white"/>
<path d="M671.055 568.611V569.306H671.75V568.611H671.055ZM670.36 457.389V568.611H671.75V457.389H670.36ZM671.055 567.916H559.833V569.306H671.055V567.916Z" fill="#2F2B43" fill-opacity="0.2" mask="url(#path-87-inside-43_935_41733)"/>
<mask id="path-89-inside-44_935_41733" fill="white">
<path d="M671.056 457.389H782.278V568.611H671.056V457.389Z"/>
</mask>
<path d="M671.056 457.389H782.278V568.611H671.056V457.389Z" fill="white"/>
<path d="M782.278 568.611V569.306H782.973V568.611H782.278ZM781.583 457.389V568.611H782.973V457.389H781.583ZM782.278 567.916H671.056V569.306H782.278V567.916Z" fill="#2F2B43" fill-opacity="0.2" mask="url(#path-89-inside-44_935_41733)"/>
<mask id="path-91-inside-45_935_41733" fill="white">
<path d="M782.278 457.389H893.5V568.611H782.278V457.389Z"/>
</mask>
<path d="M782.278 457.389H893.5V568.611H782.278V457.389Z" fill="white"/>
<path d="M893.5 567.916H782.278V569.306H893.5V567.916Z" fill="#2F2B43" fill-opacity="0.2" mask="url(#path-91-inside-45_935_41733)"/>
<mask id="path-93-inside-46_935_41733" fill="white">
<path d="M-107.5 568.611H3.72222V679.834H-107.5V568.611Z"/>
</mask>
<path d="M-107.5 568.611H3.72222V679.834H-107.5V568.611Z" fill="white"/>
<path d="M3.72222 679.834V680.529H4.41736V679.834H3.72222ZM3.02708 568.611V679.834H4.41736V568.611H3.02708ZM3.72222 679.138H-107.5V680.529H3.72222V679.138Z" fill="#2F2B43" fill-opacity="0.2" mask="url(#path-93-inside-46_935_41733)"/>
<mask id="path-95-inside-47_935_41733" fill="white">
<path d="M3.72217 568.611H114.944V679.834H3.72217V568.611Z"/>
</mask>
<path d="M3.72217 568.611H114.944V679.834H3.72217V568.611Z" fill="white"/>
<path d="M114.944 679.834V680.529H115.64V679.834H114.944ZM114.249 568.611V679.834H115.64V568.611H114.249ZM114.944 679.138H3.72217V680.529H114.944V679.138Z" fill="#2F2B43" fill-opacity="0.2" mask="url(#path-95-inside-47_935_41733)"/>
<mask id="path-97-inside-48_935_41733" fill="white">
<path d="M114.944 568.611H226.167V679.834H114.944V568.611Z"/>
</mask>
<path d="M114.944 568.611H226.167V679.834H114.944V568.611Z" fill="white"/>
<path d="M226.167 679.834V680.529H226.862V679.834H226.167ZM225.471 568.611V679.834H226.862V568.611H225.471ZM226.167 679.138H114.944V680.529H226.167V679.138Z" fill="#2F2B43" fill-opacity="0.2" mask="url(#path-97-inside-48_935_41733)"/>
<mask id="path-99-inside-49_935_41733" fill="white">
<path d="M226.167 568.611H337.389V679.834H226.167V568.611Z"/>
</mask>
<path d="M226.167 568.611H337.389V679.834H226.167V568.611Z" fill="white"/>
<path d="M337.389 679.834V680.529H338.084V679.834H337.389ZM336.694 568.611V679.834H338.084V568.611H336.694ZM337.389 679.138H226.167V680.529H337.389V679.138Z" fill="#2F2B43" fill-opacity="0.2" mask="url(#path-99-inside-49_935_41733)"/>
<mask id="path-101-inside-50_935_41733" fill="white">
<path d="M337.389 568.611H448.611V679.834H337.389V568.611Z"/>
</mask>
<path d="M337.389 568.611H448.611V679.834H337.389V568.611Z" fill="white"/>
<path d="M448.611 679.834V680.529H449.306V679.834H448.611ZM447.916 568.611V679.834H449.306V568.611H447.916ZM448.611 679.138H337.389V680.529H448.611V679.138Z" fill="#2F2B43" fill-opacity="0.2" mask="url(#path-101-inside-50_935_41733)"/>
<mask id="path-103-inside-51_935_41733" fill="white">
<path d="M448.611 568.611H559.834V679.834H448.611V568.611Z"/>
</mask>
<path d="M448.611 568.611H559.834V679.834H448.611V568.611Z" fill="white"/>
<path d="M559.834 679.834V680.529H560.529V679.834H559.834ZM559.138 568.611V679.834H560.529V568.611H559.138ZM559.834 679.138H448.611V680.529H559.834V679.138Z" fill="#2F2B43" fill-opacity="0.2" mask="url(#path-103-inside-51_935_41733)"/>
<mask id="path-105-inside-52_935_41733" fill="white">
<path d="M559.833 568.611H671.056V679.834H559.833V568.611Z"/>
</mask>
<path d="M559.833 568.611H671.056V679.834H559.833V568.611Z" fill="#F6F6F8"/>
<path d="M671.056 679.834V680.529H671.751V679.834H671.056ZM670.361 568.611V679.834H671.751V568.611H670.361ZM671.056 679.138H559.833V680.529H671.056V679.138Z" fill="#2F2B43" fill-opacity="0.2" mask="url(#path-105-inside-52_935_41733)"/>
<mask id="path-107-inside-53_935_41733" fill="white">
<path d="M671.056 568.611H782.278V679.834H671.056V568.611Z"/>
</mask>
<path d="M671.056 568.611H782.278V679.834H671.056V568.611Z" fill="white"/>
<path d="M782.278 679.834V680.529H782.973V679.834H782.278ZM781.583 568.611V679.834H782.973V568.611H781.583ZM782.278 679.138H671.056V680.529H782.278V679.138Z" fill="#2F2B43" fill-opacity="0.2" mask="url(#path-107-inside-53_935_41733)"/>
<mask id="path-109-inside-54_935_41733" fill="white">
<path d="M782.278 568.611H893.5V679.834H782.278V568.611Z"/>
</mask>
<path d="M782.278 568.611H893.5V679.834H782.278V568.611Z" fill="white"/>
<path d="M893.5 679.138H782.278V680.529H893.5V679.138Z" fill="#2F2B43" fill-opacity="0.2" mask="url(#path-109-inside-54_935_41733)"/>
<mask id="path-111-inside-55_935_41733" fill="white">
<path d="M-107.5 679.833H3.72222V791.055H-107.5V679.833Z"/>
</mask>
<path d="M-107.5 679.833H3.72222V791.055H-107.5V679.833Z" fill="white"/>
<path d="M3.72222 791.055V791.75H4.41736V791.055H3.72222ZM3.02708 679.833V791.055H4.41736V679.833H3.02708ZM3.72222 790.36H-107.5V791.75H3.72222V790.36Z" fill="#2F2B43" fill-opacity="0.2" mask="url(#path-111-inside-55_935_41733)"/>
<mask id="path-113-inside-56_935_41733" fill="white">
<path d="M3.72217 679.833H114.944V791.055H3.72217V679.833Z"/>
</mask>
<path d="M3.72217 679.833H114.944V791.055H3.72217V679.833Z" fill="white"/>
<path d="M114.944 791.055V791.75H115.64V791.055H114.944ZM114.249 679.833V791.055H115.64V679.833H114.249ZM114.944 790.36H3.72217V791.75H114.944V790.36Z" fill="#2F2B43" fill-opacity="0.2" mask="url(#path-113-inside-56_935_41733)"/>
<mask id="path-115-inside-57_935_41733" fill="white">
<path d="M114.944 679.833H226.167V791.055H114.944V679.833Z"/>
</mask>
<path d="M114.944 679.833H226.167V791.055H114.944V679.833Z" fill="white"/>
<path d="M226.167 791.055V791.75H226.862V791.055H226.167ZM225.471 679.833V791.055H226.862V679.833H225.471ZM226.167 790.36H114.944V791.75H226.167V790.36Z" fill="#2F2B43" fill-opacity="0.2" mask="url(#path-115-inside-57_935_41733)"/>
<mask id="path-117-inside-58_935_41733" fill="white">
<path d="M226.167 679.833H337.389V791.055H226.167V679.833Z"/>
</mask>
<path d="M226.167 679.833H337.389V791.055H226.167V679.833Z" fill="#F6F6F8"/>
<path d="M337.389 791.055V791.75H338.084V791.055H337.389ZM336.694 679.833V791.055H338.084V679.833H336.694ZM337.389 790.36H226.167V791.75H337.389V790.36Z" fill="#2F2B43" fill-opacity="0.2" mask="url(#path-117-inside-58_935_41733)"/>
<mask id="path-119-inside-59_935_41733" fill="white">
<path d="M337.389 679.833H448.611V791.055H337.389V679.833Z"/>
</mask>
<path d="M337.389 679.833H448.611V791.055H337.389V679.833Z" fill="white"/>
<path d="M448.611 791.055V791.75H449.306V791.055H448.611ZM447.916 679.833V791.055H449.306V679.833H447.916ZM448.611 790.36H337.389V791.75H448.611V790.36Z" fill="#2F2B43" fill-opacity="0.2" mask="url(#path-119-inside-59_935_41733)"/>
<mask id="path-121-inside-60_935_41733" fill="white">
<path d="M448.611 679.833H559.833V791.055H448.611V679.833Z"/>
</mask>
<path d="M448.611 679.833H559.833V791.055H448.611V679.833Z" fill="white"/>
<path d="M559.833 791.055V791.75H560.528V791.055H559.833ZM559.138 679.833V791.055H560.528V679.833H559.138ZM559.833 790.36H448.611V791.75H559.833V790.36Z" fill="#2F2B43" fill-opacity="0.2" mask="url(#path-121-inside-60_935_41733)"/>
<mask id="path-123-inside-61_935_41733" fill="white">
<path d="M559.833 679.833H671.055V791.055H559.833V679.833Z"/>
</mask>
<path d="M559.833 679.833H671.055V791.055H559.833V679.833Z" fill="white"/>
<path d="M671.055 791.055V791.75H671.75V791.055H671.055ZM670.36 679.833V791.055H671.75V679.833H670.36ZM671.055 790.36H559.833V791.75H671.055V790.36Z" fill="#2F2B43" fill-opacity="0.2" mask="url(#path-123-inside-61_935_41733)"/>
<mask id="path-125-inside-62_935_41733" fill="white">
<path d="M671.056 679.833H782.278V791.055H671.056V679.833Z"/>
</mask>
<path d="M671.056 679.833H782.278V791.055H671.056V679.833Z" fill="white"/>
<path d="M782.278 791.055V791.75H782.973V791.055H782.278ZM781.583 679.833V791.055H782.973V679.833H781.583ZM782.278 790.36H671.056V791.75H782.278V790.36Z" fill="#2F2B43" fill-opacity="0.2" mask="url(#path-125-inside-62_935_41733)"/>
<mask id="path-127-inside-63_935_41733" fill="white">
<path d="M782.278 679.833H893.5V791.055H782.278V679.833Z"/>
</mask>
<path d="M782.278 679.833H893.5V791.055H782.278V679.833Z" fill="white"/>
<path d="M893.5 790.36H782.278V791.75H893.5V790.36Z" fill="#2F2B43" fill-opacity="0.2" mask="url(#path-127-inside-63_935_41733)"/>
<mask id="path-129-inside-64_935_41733" fill="white">
<path d="M-107.5 791.056H3.72222V902.278H-107.5V791.056Z"/>
</mask>
<path d="M-107.5 791.056H3.72222V902.278H-107.5V791.056Z" fill="white"/>
<path d="M3.72222 902.278V902.973H4.41736V902.278H3.72222ZM3.02708 791.056V902.278H4.41736V791.056H3.02708ZM3.72222 901.583H-107.5V902.973H3.72222V901.583Z" fill="#2F2B43" fill-opacity="0.2" mask="url(#path-129-inside-64_935_41733)"/>
<mask id="path-131-inside-65_935_41733" fill="white">
<path d="M3.72217 791.056H114.944V902.278H3.72217V791.056Z"/>
</mask>
<path d="M3.72217 791.056H114.944V902.278H3.72217V791.056Z" fill="white"/>
<path d="M114.944 902.278V902.973H115.64V902.278H114.944ZM114.249 791.056V902.278H115.64V791.056H114.249ZM114.944 901.583H3.72217V902.973H114.944V901.583Z" fill="#2F2B43" fill-opacity="0.2" mask="url(#path-131-inside-65_935_41733)"/>
<mask id="path-133-inside-66_935_41733" fill="white">
<path d="M114.944 791.056H226.167V902.278H114.944V791.056Z"/>
</mask>
<path d="M114.944 791.056H226.167V902.278H114.944V791.056Z" fill="white"/>
<path d="M226.167 902.278V902.973H226.862V902.278H226.167ZM225.471 791.056V902.278H226.862V791.056H225.471ZM226.167 901.583H114.944V902.973H226.167V901.583Z" fill="#2F2B43" fill-opacity="0.2" mask="url(#path-133-inside-66_935_41733)"/>
<mask id="path-135-inside-67_935_41733" fill="white">
<path d="M226.167 791.056H337.389V902.278H226.167V791.056Z"/>
</mask>
<path d="M226.167 791.056H337.389V902.278H226.167V791.056Z" fill="white"/>
<path d="M337.389 902.278V902.973H338.084V902.278H337.389ZM336.694 791.056V902.278H338.084V791.056H336.694ZM337.389 901.583H226.167V902.973H337.389V901.583Z" fill="#2F2B43" fill-opacity="0.2" mask="url(#path-135-inside-67_935_41733)"/>
<mask id="path-137-inside-68_935_41733" fill="white">
<path d="M337.389 791.056H448.611V902.278H337.389V791.056Z"/>
</mask>
<path d="M337.389 791.056H448.611V902.278H337.389V791.056Z" fill="white"/>
<path d="M448.611 902.278V902.973H449.306V902.278H448.611ZM447.916 791.056V902.278H449.306V791.056H447.916ZM448.611 901.583H337.389V902.973H448.611V901.583Z" fill="#2F2B43" fill-opacity="0.2" mask="url(#path-137-inside-68_935_41733)"/>
<mask id="path-139-inside-69_935_41733" fill="white">
<path d="M448.611 791.056H559.834V902.278H448.611V791.056Z"/>
</mask>
<path d="M448.611 791.056H559.834V902.278H448.611V791.056Z" fill="white"/>
<path d="M559.834 902.278V902.973H560.529V902.278H559.834ZM559.138 791.056V902.278H560.529V791.056H559.138ZM559.834 901.583H448.611V902.973H559.834V901.583Z" fill="#2F2B43" fill-opacity="0.2" mask="url(#path-139-inside-69_935_41733)"/>
<mask id="path-141-inside-70_935_41733" fill="white">
<path d="M559.833 791.056H671.056V902.278H559.833V791.056Z"/>
</mask>
<path d="M559.833 791.056H671.056V902.278H559.833V791.056Z" fill="white"/>
<path d="M671.056 902.278V902.973H671.751V902.278H671.056ZM670.361 791.056V902.278H671.751V791.056H670.361ZM671.056 901.583H559.833V902.973H671.056V901.583Z" fill="#2F2B43" fill-opacity="0.2" mask="url(#path-141-inside-70_935_41733)"/>
<mask id="path-143-inside-71_935_41733" fill="white">
<path d="M671.056 791.056H782.278V902.278H671.056V791.056Z"/>
</mask>
<path d="M671.056 791.056H782.278V902.278H671.056V791.056Z" fill="white"/>
<path d="M782.278 902.278V902.973H782.973V902.278H782.278ZM781.583 791.056V902.278H782.973V791.056H781.583ZM782.278 901.583H671.056V902.973H782.278V901.583Z" fill="#2F2B43" fill-opacity="0.2" mask="url(#path-143-inside-71_935_41733)"/>
<mask id="path-145-inside-72_935_41733" fill="white">
<path d="M782.278 791.056H893.5V902.278H782.278V791.056Z"/>
</mask>
<path d="M782.278 791.056H893.5V902.278H782.278V791.056Z" fill="white"/>
<path d="M893.5 901.583H782.278V902.973H893.5V901.583Z" fill="#2F2B43" fill-opacity="0.2" mask="url(#path-145-inside-72_935_41733)"/>
<mask id="path-147-inside-73_935_41733" fill="white">
<path d="M-107.5 902.277H3.72222V1013.5H-107.5V902.277Z"/>
</mask>
<path d="M-107.5 902.277H3.72222V1013.5H-107.5V902.277Z" fill="white"/>
<path d="M3.02708 902.277V1013.5H4.41736V902.277H3.02708Z" fill="#2F2B43" fill-opacity="0.2" mask="url(#path-147-inside-73_935_41733)"/>
<mask id="path-149-inside-74_935_41733" fill="white">
<path d="M3.72217 902.277H114.944V1013.5H3.72217V902.277Z"/>
</mask>
<path d="M3.72217 902.277H114.944V1013.5H3.72217V902.277Z" fill="white"/>
<path d="M114.249 902.277V1013.5H115.64V902.277H114.249Z" fill="#2F2B43" fill-opacity="0.2" mask="url(#path-149-inside-74_935_41733)"/>
<mask id="path-151-inside-75_935_41733" fill="white">
<path d="M114.944 902.277H226.167V1013.5H114.944V902.277Z"/>
</mask>
<path d="M114.944 902.277H226.167V1013.5H114.944V902.277Z" fill="white"/>
<path d="M225.471 902.277V1013.5H226.862V902.277H225.471Z" fill="#2F2B43" fill-opacity="0.2" mask="url(#path-151-inside-75_935_41733)"/>
<mask id="path-153-inside-76_935_41733" fill="white">
<path d="M226.167 902.277H337.389V1013.5H226.167V902.277Z"/>
</mask>
<path d="M226.167 902.277H337.389V1013.5H226.167V902.277Z" fill="white"/>
<path d="M336.694 902.277V1013.5H338.084V902.277H336.694Z" fill="#2F2B43" fill-opacity="0.2" mask="url(#path-153-inside-76_935_41733)"/>
<mask id="path-155-inside-77_935_41733" fill="white">
<path d="M337.389 902.277H448.611V1013.5H337.389V902.277Z"/>
</mask>
<path d="M337.389 902.277H448.611V1013.5H337.389V902.277Z" fill="white"/>
<path d="M447.916 902.277V1013.5H449.306V902.277H447.916Z" fill="#2F2B43" fill-opacity="0.2" mask="url(#path-155-inside-77_935_41733)"/>
<mask id="path-157-inside-78_935_41733" fill="white">
<path d="M448.611 902.277H559.833V1013.5H448.611V902.277Z"/>
</mask>
<path d="M448.611 902.277H559.833V1013.5H448.611V902.277Z" fill="white"/>
<path d="M559.138 902.277V1013.5H560.528V902.277H559.138Z" fill="#2F2B43" fill-opacity="0.2" mask="url(#path-157-inside-78_935_41733)"/>
<mask id="path-159-inside-79_935_41733" fill="white">
<path d="M559.833 902.277H671.055V1013.5H559.833V902.277Z"/>
</mask>
<path d="M559.833 902.277H671.055V1013.5H559.833V902.277Z" fill="white"/>
<path d="M670.36 902.277V1013.5H671.75V902.277H670.36Z" fill="#2F2B43" fill-opacity="0.2" mask="url(#path-159-inside-79_935_41733)"/>
<mask id="path-161-inside-80_935_41733" fill="white">
<path d="M671.056 902.277H782.278V1013.5H671.056V902.277Z"/>
</mask>
<path d="M671.056 902.277H782.278V1013.5H671.056V902.277Z" fill="white"/>
<path d="M781.583 902.277V1013.5H782.973V902.277H781.583Z" fill="#2F2B43" fill-opacity="0.2" mask="url(#path-161-inside-80_935_41733)"/>
<path d="M782.278 902.277H893.5V1013.5H782.278V902.277Z" fill="white"/>
</g>
</g>
<defs>
<radialGradient id="paint0_radial_935_41733" cx="0" cy="0" r="1" gradientUnits="userSpaceOnUse" gradientTransform="translate(393.5 513.5) rotate(90) scale(510.5 393.5)">
<stop stop-color="white"/>
<stop offset="1" stop-color="white" stop-opacity="0"/>
</radialGradient>
</defs>
</svg>
