<svg width="18" height="18" viewBox="0 0 18 18" fill="none" xmlns="http://www.w3.org/2000/svg">
<mask id="mask0_753_18359" style="mask-type:alpha" maskUnits="userSpaceOnUse" x="0" y="0" width="18" height="18">
<rect width="18" height="18" fill="#D9D9D9"/>
</mask>
<g mask="url(#mask0_753_18359)">
<path d="M2.46009 7.29982C2.36063 7.23134 2.29854 7.1435 2.27381 7.0363C2.24909 6.92909 2.27721 6.821 2.35819 6.71204C3.12721 5.63459 4.09834 4.79838 5.27156 4.2034C6.4448 3.60844 7.69691 3.31096 9.02788 3.31096C10.3529 3.31096 11.6021 3.59608 12.7757 4.16632C13.9492 4.73657 14.9267 5.56068 15.7082 6.63867C15.8076 6.76911 15.8395 6.8863 15.8038 6.99023C15.768 7.09417 15.7067 7.18188 15.6197 7.25335C15.5328 7.32183 15.4326 7.35219 15.3191 7.34444C15.2057 7.3367 15.1085 7.27536 15.0275 7.16041C14.3519 6.19437 13.4818 5.45572 12.4169 4.94444C11.3521 4.43317 10.2224 4.17603 9.02788 4.17305C7.83332 4.17006 6.71151 4.4257 5.66246 4.93996C4.61341 5.45422 3.74935 6.19587 3.07027 7.16489C2.98332 7.29533 2.88162 7.3668 2.76517 7.3793C2.64874 7.3918 2.54704 7.3653 2.46009 7.29982ZM11.2049 16.566C9.84514 16.25 8.75349 15.5978 7.92999 14.6097C7.10648 13.6215 6.69473 12.4229 6.69473 11.0139C6.69473 10.371 6.92272 9.82882 7.37871 9.38738C7.83468 8.94595 8.3859 8.72523 9.03236 8.72523C9.67884 8.72523 10.2301 8.94295 10.686 9.3784C11.142 9.81387 11.37 10.3501 11.37 10.987C11.37 11.3846 11.5173 11.721 11.8119 11.9963C12.1064 12.2716 12.4572 12.4092 12.8643 12.4092C13.2714 12.4092 13.6167 12.2716 13.9002 11.9963C14.1838 11.721 14.3256 11.3846 14.3256 10.987C14.3256 9.56095 13.807 8.36088 12.7699 7.38683C11.7328 6.41278 10.4903 5.92576 9.04215 5.92576C7.59405 5.92576 6.3537 6.41652 5.3211 7.39805C4.28849 8.37957 3.77218 9.58012 3.77218 10.9997C3.77218 11.3535 3.80106 11.7494 3.85881 12.1875C3.91654 12.6255 4.0412 13.1161 4.23277 13.6593C4.27626 13.7898 4.27389 13.9055 4.22565 14.0064C4.17741 14.1074 4.09732 14.1796 3.98537 14.223C3.86743 14.2665 3.75561 14.2634 3.64989 14.2137C3.54419 14.1639 3.46661 14.0771 3.41715 13.9532C3.24161 13.4986 3.11322 13.0292 3.03197 12.5449C2.95072 12.0607 2.91009 11.5504 2.91009 11.0139C2.91009 9.33948 3.50948 7.93228 4.70826 6.79235C5.90703 5.6524 7.34691 5.08242 9.02788 5.08242C10.7184 5.08242 12.1669 5.65015 13.3734 6.78562C14.5799 7.92108 15.1832 9.32155 15.1832 10.987C15.1832 11.627 14.9583 12.1646 14.5086 12.5997C14.0589 13.0349 13.5108 13.2525 12.8643 13.2525C12.2178 13.2525 11.6635 13.0387 11.2013 12.611C10.739 12.1832 10.5079 11.6509 10.5079 11.0139C10.5079 10.6134 10.3638 10.2755 10.0754 10.0002C9.78713 9.72495 9.43944 9.58732 9.03236 9.58732C8.6253 9.58732 8.27761 9.72495 7.9893 10.0002C7.70099 10.2755 7.55683 10.6134 7.55683 11.0139C7.55683 12.2175 7.90724 13.2255 8.60805 14.038C9.30886 14.8505 10.2504 15.4118 11.4328 15.7218C11.5602 15.7563 11.6457 15.8233 11.6892 15.9228C11.7326 16.0222 11.7404 16.1279 11.7124 16.2399C11.6844 16.3394 11.6277 16.4256 11.5422 16.4985C11.4568 16.5715 11.3443 16.594 11.2049 16.566ZM4.88413 3.38555C4.76619 3.45701 4.64901 3.47637 4.53257 3.44363C4.41613 3.41088 4.32843 3.33853 4.26947 3.22658C4.21647 3.1206 4.20546 3.01652 4.23645 2.91436C4.26742 2.81218 4.33889 2.72685 4.45086 2.65837C5.15683 2.26843 5.89704 1.97495 6.67149 1.77794C7.44596 1.58093 8.23291 1.48242 9.03236 1.48242C9.83835 1.48242 10.6241 1.5793 11.3896 1.77305C12.1551 1.9668 12.8956 2.24642 13.611 2.6119C13.7415 2.68337 13.8183 2.77107 13.8415 2.87502C13.8648 2.97896 13.8546 3.08065 13.8112 3.1801C13.7647 3.27957 13.6903 3.35654 13.5878 3.41103C13.4854 3.4655 13.3657 3.45701 13.2287 3.38555C12.5722 3.04506 11.8915 2.78568 11.1868 2.60742C10.482 2.42916 9.76389 2.34003 9.03236 2.34003C8.30736 2.34003 7.59412 2.4244 6.89263 2.59315C6.19113 2.7619 5.52163 3.02603 4.88413 3.38555ZM7.0518 16.2676C6.3143 15.4986 5.7554 14.7035 5.3751 13.8823C4.9948 13.0611 4.80465 12.105 4.80465 11.0139C4.80465 9.8615 5.21715 8.88717 6.04215 8.09097C6.86715 7.29478 7.86389 6.89669 9.03236 6.89669C10.1979 6.89669 11.1994 7.2918 12.0369 8.08201C12.8744 8.87223 13.2931 9.84058 13.2931 10.987C13.2931 11.1205 13.255 11.229 13.1788 11.3127C13.1026 11.3964 12.9977 11.4383 12.8643 11.4383C12.7404 11.4383 12.6372 11.3964 12.5547 11.3127C12.4722 11.229 12.431 11.1205 12.431 10.987C12.431 10.0735 12.0961 9.30627 11.4263 8.68548C10.7564 8.06469 9.95845 7.7543 9.03236 7.7543C8.10329 7.7543 7.30934 8.06768 6.65051 8.69444C5.99167 9.32122 5.66226 10.0944 5.66226 11.0139C5.66226 12.0025 5.82829 12.8492 6.16037 13.554C6.49243 14.2587 6.99447 14.9658 7.66648 15.6753C7.75343 15.7623 7.79766 15.8625 7.79916 15.976C7.80064 16.0894 7.76239 16.1881 7.68441 16.2721C7.59746 16.365 7.49203 16.4093 7.36811 16.4048C7.24419 16.4003 7.13875 16.3546 7.0518 16.2676ZM12.8085 15.024C11.6631 15.024 10.6735 14.6527 9.83985 13.9102C9.00615 13.1677 8.5893 12.1963 8.5893 10.996C8.5893 10.8781 8.62816 10.7756 8.70587 10.6887C8.78359 10.6017 8.88768 10.5582 9.01811 10.5582C9.14854 10.5582 9.25261 10.6017 9.33034 10.6887C9.40805 10.7756 9.44691 10.8781 9.44691 10.996C9.44691 11.9574 9.77993 12.7254 10.446 13.3C11.112 13.8746 11.8995 14.1619 12.8085 14.1619C12.8954 14.1619 13.0099 14.1542 13.1519 14.1387C13.2939 14.1232 13.4384 14.1059 13.5854 14.0869C13.7098 14.0679 13.8172 14.091 13.9074 14.1562C13.9976 14.2214 14.0522 14.3163 14.0712 14.4407C14.0903 14.5586 14.0655 14.6573 13.997 14.7368C13.9286 14.8163 13.8413 14.8716 13.7354 14.9025C13.5223 14.965 13.3299 15.0009 13.1582 15.0101C12.9865 15.0194 12.8699 15.024 12.8085 15.024Z" fill="#252833"/>
</g>
</svg>
