<svg width="103" height="24" viewBox="0 0 103 24" fill="none" xmlns="http://www.w3.org/2000/svg">
<path d="M3.726 19V9.676L9.918 19H12.186V5.842H9.918V15.166L3.744 5.842H1.458V19H3.726ZM14.4326 14.536C14.4326 17.308 16.4306 19.216 19.1846 19.216C21.9386 19.216 23.9366 17.308 23.9366 14.536C23.9366 11.764 21.9386 9.856 19.1846 9.856C16.4306 9.856 14.4326 11.764 14.4326 14.536ZM16.6286 14.536C16.6286 12.916 17.6726 11.818 19.1846 11.818C20.6966 11.818 21.7406 12.916 21.7406 14.536C21.7406 16.156 20.6966 17.254 19.1846 17.254C17.6726 17.254 16.6286 16.156 16.6286 14.536ZM27.9378 19H30.0978L33.8058 10.108H31.5378L29.9178 14.194C29.5398 15.166 29.2158 16.102 29.0898 16.66C28.9818 16.174 28.6758 15.256 28.2978 14.194L26.7498 10.108H24.4098L27.9378 19ZM38.7868 19.234C41.1088 19.234 42.7288 18.064 43.1068 16.12H41.0728C40.8208 16.966 40.0288 17.434 38.8228 17.434C37.3648 17.434 36.5368 16.642 36.3748 15.076L43.0708 15.058V14.392C43.0708 11.62 41.3788 9.838 38.7148 9.838C36.1048 9.838 34.2868 11.764 34.2868 14.554C34.2868 17.308 36.1408 19.234 38.7868 19.234ZM38.7328 11.638C40.0468 11.638 40.8928 12.448 40.8928 13.672H36.4288C36.6448 12.34 37.4368 11.638 38.7328 11.638ZM47.2223 19V5.608H45.0443V19H47.2223ZM56.1954 19L57.2574 15.958H62.1714L63.2334 19H65.6634L60.9114 5.842H58.5534L53.8014 19H56.1954ZM59.4354 9.766C59.5614 9.406 59.6694 9.01 59.7234 8.758C59.7594 9.028 59.8854 9.424 59.9934 9.766L61.5054 14.014H57.9414L59.4354 9.766ZM72.603 7.786C74.187 7.786 75.519 8.506 75.933 10.054H78.363C77.985 7.372 75.663 5.626 72.657 5.626C68.697 5.626 66.087 8.47 66.087 12.466C66.087 16.516 68.661 19.198 72.351 19.198C74.133 19.198 75.627 18.496 76.347 17.488L76.491 19H78.435V11.602H72.315V13.636H76.293V13.69C76.293 15.796 74.907 17.056 72.621 17.056C70.191 17.056 68.499 15.454 68.499 12.52C68.499 9.676 69.993 7.786 72.603 7.786Z" fill="#26272B"/>
<path fill-rule="evenodd" clip-rule="evenodd" d="M103 12.1406C103 15.5255 100.758 18.3867 97.6774 19.3197C97.0492 19.5099 96.4682 18.9973 96.4682 18.341V13.964C96.4682 13.5953 96.6549 13.2517 96.9641 13.051L101.378 10.187C101.958 9.81019 102.743 10.0665 102.871 10.7467C102.956 11.1984 103 11.6643 103 12.1406ZM100.618 8.37065C101.141 8.03155 101.277 7.31729 100.84 6.87383C99.4796 5.49516 97.5896 4.64062 95.5 4.64062C93.1581 4.64062 91.0669 5.71399 89.6916 7.39559C89.2956 7.87971 89.5014 8.58081 90.0574 8.86709L94.9584 11.3904C95.3055 11.5691 95.7217 11.5482 96.0491 11.3357L100.618 8.37065ZM88 12.1406C88 15.5253 90.242 18.3863 93.322 19.3195C93.9502 19.5098 94.5312 18.9972 94.5312 18.3408V14.0129C94.5312 13.6053 94.3035 13.2318 93.941 13.0452L89.4621 10.7392C88.8487 10.4234 88.0958 10.7535 88.0322 11.4405C88.0109 11.671 88 11.9045 88 12.1406Z" fill="#32D583"/>
</svg>
