<svg width="18" height="18" viewBox="0 0 18 18" fill="none" xmlns="http://www.w3.org/2000/svg">
<path d="M14.4148 11.4378L12.5248 11.2203C12.0673 11.1678 11.6173 11.3253 11.2948 11.6478L9.90729 13.0353C8.84304 12.4953 7.87779 11.7911 7.04379 10.9563C6.20904 10.1223 5.50479 9.15706 4.96479 8.09281L6.35229 6.70531C6.67479 6.38281 6.83229 5.93281 6.77979 5.47531L6.56229 3.58531C6.47229 2.82781 5.83479 2.25781 5.06979 2.25781H3.77229C2.92479 2.25781 2.21979 2.96281 2.27229 3.81031C2.47104 7.01206 3.85029 9.89131 5.97954 12.0206C8.10879 14.1498 10.988 15.5291 14.1898 15.7278C15.0373 15.7803 15.7423 15.0753 15.7423 14.2278V12.9303C15.7423 12.1653 15.1723 11.5278 14.4148 11.4378Z" fill="#3F3F46"/>
</svg>
