<svg width="24" height="24" viewBox="0 0 24 24" fill="none" xmlns="http://www.w3.org/2000/svg">
<path d="M13.5 3C10.7507 3 8.65957 3.64346 7.25977 4.96582C5.85996 6.28818 5.25 8.2178 5.25 10.5V10.5015L5.25439 11.1753C4.82343 11.5838 4.5 12.1102 4.5 12.75C4.5 13.6971 5.16795 14.3821 6.00293 14.71C6.27884 15.5807 6.59363 16.4829 6.92578 17.2617C7.29072 18.1175 7.60687 18.7985 8.06104 19.2788C10.2134 21.556 13.7866 21.556 15.939 19.2788C16.3931 18.7985 16.7093 18.1175 17.0742 17.2617C17.4064 16.4829 17.7212 15.5807 17.9971 14.71C18.8319 14.3819 19.5 13.6971 19.5 12.75C19.5 12.1138 19.1799 11.5866 18.75 11.1768V10.5C18.75 8.38195 18.263 6.87413 17.4097 5.88281C16.6867 5.04291 15.7201 4.70369 14.7627 4.59814L13.9629 3H13.5ZM13.0649 4.55713L13.5791 5.58545C13.8294 6.08538 13.9102 6.42791 13.9146 6.58008C13.9189 6.73224 13.9222 6.67574 13.8896 6.70312C13.8246 6.75789 13.2143 6.90959 12.4336 6.94922C11.6529 6.98884 10.7321 6.99014 9.87598 7.32129C9.01986 7.65244 8.2598 8.5272 8.25 9.74414L9.75 9.75586C9.75593 9.01642 9.93771 8.90541 10.4165 8.72021C10.8953 8.53501 11.7023 8.48866 12.5083 8.44775C13.3143 8.40685 14.1491 8.44573 14.855 7.85156C15.2079 7.55449 15.4288 7.04027 15.4146 6.5376C15.4114 6.42845 15.3987 6.31877 15.3809 6.20801C15.7087 6.34482 16.0083 6.55391 16.2729 6.86133C16.817 7.49338 17.25 8.61155 17.25 10.5V11.8872L17.625 12.104C17.8529 12.2357 18 12.4648 18 12.75C18 13.1502 17.7027 13.4586 17.3086 13.4912L16.8032 13.5322L16.6538 14.0171C16.3764 14.9195 16.0323 15.8817 15.6943 16.6743C15.3563 17.4669 14.968 18.1219 14.8491 18.2476V18.249C13.2529 19.9378 10.7471 19.9378 9.15088 18.249V18.2476C9.03204 18.1219 8.64367 17.4669 8.30566 16.6743C7.96766 15.8817 7.62214 14.9195 7.34473 14.0171L7.19678 13.5322L6.68994 13.4912C6.29791 13.4591 6 13.1502 6 12.75C6 12.4696 6.15074 12.2369 6.38086 12.104L6.75732 11.8857L6.75586 11.4507L6.75 10.4956C6.75083 8.47542 7.25683 7.03125 8.28955 6.05566C9.25199 5.14647 10.8299 4.63059 13.0649 4.55713ZM9.75 12C9.336 12 9 12.336 9 12.75C9 13.164 9.336 13.5 9.75 13.5C10.164 13.5 10.5 13.164 10.5 12.75C10.5 12.336 10.164 12 9.75 12ZM14.25 12C13.836 12 13.5 12.336 13.5 12.75C13.5 13.164 13.836 13.5 14.25 13.5C14.664 13.5 15 13.164 15 12.75C15 12.336 14.664 12 14.25 12ZM12 15.75C11.375 15.75 10.898 16.0208 10.5527 16.251C10.2075 16.4811 9.96973 16.7197 9.96973 16.7197L11.0303 17.7803C11.0303 17.7803 11.1675 17.6439 11.3848 17.499C11.602 17.3542 11.875 17.25 12 17.25C12.125 17.25 12.398 17.3542 12.6152 17.499C12.8325 17.6439 12.9697 17.7803 12.9697 17.7803L14.0303 16.7197C14.0303 16.7197 13.7925 16.4811 13.4473 16.251C13.102 16.0208 12.625 15.75 12 15.75Z" fill="#26272B"/>
</svg>
